<svg width="100" height="100" viewBox="0 0 100 100" fill="none" xmlns="http://www.w3.org/2000/svg">
<path d="M19.4096 13.6616C24.1816 9.64443 29.6982 6.6065 35.6443 4.72128C41.5904 2.83605 47.8495 2.14046 54.0645 2.67421C60.2794 3.20796 66.3283 4.96061 71.8659 7.83207C77.4034 10.7035 82.3212 14.6376 86.3384 19.4096C90.3556 24.1816 93.3935 29.6982 95.2787 35.6443C97.1639 41.5904 97.8595 47.8495 97.3258 54.0645C96.792 60.2794 95.0394 66.3283 92.1679 71.8659C89.2965 77.4034 85.3624 82.3212 80.5904 86.3384C75.8183 90.3556 70.3018 93.3935 64.3557 95.2787C58.4096 97.1639 52.1504 97.8595 45.9355 97.3258C39.7206 96.792 33.6717 95.0394 28.1341 92.1679C22.5966 89.2965 17.6788 85.3624 13.6616 80.5904C9.64442 75.8183 6.60649 70.3018 4.72127 64.3557C2.83605 58.4096 2.14046 52.1504 2.67421 45.9355C3.20797 39.7206 4.96061 33.6717 7.83208 28.1341C10.7036 22.5965 14.6376 17.6788 19.4096 13.6616L19.4096 13.6616Z" stroke="black" stroke-width="5"/>
</svg>
